#!OML:ASF F:\VICON\USERDATA\INSTALL\rory7\rory7.ASF
:FULLY-SPECIFIED
:DEGREES
1063
root 2.29286 27.8278 0.794377 -170.732 -18.3906 164.13
lowerback 22.4054 -0.862371 -2.8133
upperback 6.0185 -2.87235 -1.63578
thorax -5.87034 -1.79003 0.649726
lowerneck -11.2392 0.0265878 -9.16075
upperneck 23.8103 -0.112287 4.40184
head 9.33179 -0.755643 3.00231
rclavicle 4.45278e-014 -4.77083e-014
rhumerus 3.71944 6.54862 -69.0219
rradius 112.106
rwrist -4.27129
rhand -39.0197 -372.571
rfingers 7.12502
rthumb -12.0226 317.794
lclavicle 4.45278e-014 -4.77083e-014
lhumerus 32.5993 -10.366 55.3786
lradius 82.2492
lwrist 43.8936
lhand -22.4874 32.8274
lfingers 7.12502
lthumb 3.93811 62.7708
rfemur -37.3105 16.7902 6.39511
rtibia 59.3181
rfoot -25.7843 -12.863
rtoes 8.38265
lfemur -17.9893 6.64634 -31.9252
ltibia 27.1116
lfoot 15.0803 3.52192
ltoes -5.85645
1064
root 2.29921 27.8019 0.826935 -170.81 -18.6683 164.015
lowerback 22.6584 -0.921219 -2.90151
upperback 6.02862 -2.98842 -1.62092
thorax -5.98124 -1.84774 0.75648
lowerneck -10.9936 0.00235465 -9.14329
upperneck 23.6591 -0.197643 4.5026
head 9.23785 -0.781379 3.02114
rclavicle -6.04305e-014 -2.8625e-014
rhumerus 4.05746 6.38499 -68.8095
rradius 112.048
rwrist -4.58909
rhand -38.8401 -372.086
rfingers 7.12502
rthumb -11.8494 318.269
lclavicle -6.04305e-014 -2.8625e-014
lhumerus 32.9019 -10.2581 55.2526
lradius 82.121
lwrist 44.0371
lhand -22.3943 32.8545
lfingers 7.12502
lthumb 4.02804 62.7961
rfemur -37.4491 16.3907 6.34288
rtibia 59.7241
rfoot -25.7431 -12.7716
rtoes 7.93488
lfemur -17.664 5.88815 -31.9
ltibia 26.4698
lfoot 14.9528 3.99842
ltoes -6.68929
1065
root 2.30238 27.7775 0.862814 -170.827 -19.0611 163.899
lowerback 22.9104 -1.03742 -2.91982
upperback 5.99357 -3.15324 -1.58121
thorax -6.14061 -1.924 0.865383
lowerneck -10.9117 -0.00143302 -9.00086
upperneck 23.6923 -0.222002 4.37748
head 9.23619 -0.798385 2.9504
rclavicle -3.4191e-014 -1.59028e-015
rhumerus 4.39021 6.22823 -68.5273
rradius 111.98
rwrist -4.85976
rhand -38.6714 -371.828
rfingers 7.12502
rthumb -11.6868 318.518
lclavicle -3.4191e-014 -1.59028e-015
lhumerus 33.1112 -10.1412 55.2099
lradius 82.0418
lwrist 44.2248
lhand -22.195 33.1163
lfingers 7.12502
lthumb 4.22044 63.0542
rfemur -37.5954 15.8172 6.28396
rtibia 60.0988
rfoot -25.7754 -12.6038
rtoes 7.77306
lfemur -17.4723 5.09536 -31.8877
ltibia 25.9522
lfoot 14.9371 4.22195
ltoes -8.5815
1066
root 2.3016 27.7531 0.898574 -170.848 -19.4714 163.972
lowerback 22.9386 -1.20162 -2.66525
upperback 6.06427 -3.3114 -1.52663
thorax -6.08303 -2.00732 0.822082
lowerneck -10.9279 -0.00789301 -9.01807
upperneck 23.6291 -0.221286 4.40123
head 9.21715 -0.792125 2.96113
rclavicle 2.54444e-014 -5.08889e-014
rhumerus 4.92933 6.06413 -68.2933
rradius 111.832
rwrist -5.04495
rhand -38.571 -372.3
rfingers 7.12502
rthumb -11.59 318.04
lclavicle 2.54444e-014 -5.08889e-014
lhumerus 33.462 -9.94549 55.1136
lradius 81.9477
lwrist 44.4074
lhand -22.2736 33.1986
lfingers 7.12502
lthumb 4.14458 63.138
rfemur -37.7857 15.2084 6.41017
rtibia 60.4661
rfoot -25.8294 -12.4137
rtoes 7.71451
lfemur -17.3859 4.13223 -31.6587
ltibia 25.5385
lfoot 14.9565 4.62442
ltoes -9.30765
1067
root 2.30453 27.7247 0.933788 -170.925 -19.7952 163.911
lowerback 23.082 -1.26674 -2.59078
upperback 6.17842 -3.40354 -1.52273
thorax -6.03318 -2.06333 0.812538
lowerneck -11.0766 -0.0793797 -8.95878
upperneck 23.5672 -0.286707 4.34628
head 9.22934 -0.813857 2.92552
rclavicle 1.43125e-014 -9.54166e-015
rhumerus 5.14889 5.80649 -68.1979
rradius 111.958
rwrist -5.03655
rhand -38.4328 -372.367
rfingers 7.12502
rthumb -11.4567 317.966
lclavicle 1.43125e-014 -9.54166e-015
lhumerus 33.9831 -9.81709 54.9764
lradius 81.7536
lwrist 44.5882
lhand -22.5064 32.9916
lfingers 7.12502
lthumb 3.91973 62.9353
rfemur -37.9025 14.6799 6.4103
rtibia 60.8276
rfoot -25.9127 -12.2164
rtoes 7.80087
lfemur -17.2062 3.17549 -31.5315
ltibia 25.1799
lfoot 14.9593 4.97488
ltoes -8.98261
1068
root 2.30828 27.6934 0.971108 -170.926 -20.1056 163.664
lowerback 23.2622 -1.32845 -2.65955
upperback 6.32776 -3.53923 -1.56926
thorax -5.95801 -2.14449 0.842663
lowerneck -11.4127 -0.184487 -9.01403
upperneck 23.5151 -0.373005 4.40747
head 9.28174 -0.837513 2.94905
rclavicle -3.10104e-014 -1.11319e-014
rhumerus 5.53743 5.5578 -68.058
rradius 112.052
rwrist -5.15077
rhand -38.5045 -372.37
rfingers 7.12502
rthumb -11.5258 317.967
lclavicle -3.10104e-014 -1.11319e-014
lhumerus 34.6585 -9.60446 54.8626
lradius 81.465
lwrist 44.6816
lhand -22.5796 33.0401
lfingers 7.12502
lthumb 3.84908 62.9851
rfemur -38.0938 14.1423 6.18508
rtibia 61.2168
rfoot -25.9821 -11.9795
rtoes 8.08084
lfemur -17.1068 2.10722 -31.5933
ltibia 24.8873
lfoot 15.0295 5.23738
ltoes -8.22743
